<?xml version="1.0" encoding="UTF-8"?>
<svg width="100px" height="100px" viewBox="0 0 100 100" version="1.1" xmlns="http://www.w3.org/2000/svg" xmlns:xlink="http://www.w3.org/1999/xlink">
    <!-- Generator: Sketch 41 (35326) - http://www.bohemiancoding.com/sketch -->
    <title>arrow</title>
    <desc>Created with Sketch.</desc>
    <defs></defs>
    <g id="Page-1" stroke="none" stroke-width="1" fill="none" fill-rule="evenodd">
        <g id="arrow" fill="#000000">
            <path d="M62.932165,10.0751974 C61.312775,8.3768128 58.7043883,8.40357936 57.1104303,10.1303672 L50.8895697,16.8696328 C49.2937044,18.5984869 49.3136441,21.3761985 50.9420718,23.0821705 L69,42 L5.25370455,42 C2.9044484,42 1,43.898241 1,46.2456996 L1,53.7543004 C1,56.0991355 2.90758749,58 5.25370455,58 L69,58 L50.9420718,76.9178295 C49.3172104,78.6200653 49.2956117,81.4035794 50.8895697,83.1303672 L57.1104303,89.8696328 C58.7062956,91.5984869 61.3177071,91.6180145 62.932165,89.9248026 L98.067835,53.0751974 C99.687225,51.3768128 99.6822929,48.6180145 98.067835,46.9248026 L62.932165,10.0751974 Z" transform="translate(50.000000, 50.000000) scale(-1, 1) translate(-50.000000, -50.000000) "></path>
        </g>
    </g>
</svg>