<?xml version="1.0" encoding="UTF-8"?>
<svg width="100px" height="100px" viewBox="0 0 100 100" version="1.1" xmlns="http://www.w3.org/2000/svg" xmlns:xlink="http://www.w3.org/1999/xlink">
    <!-- Generator: Sketch 41 (35326) - http://www.bohemiancoding.com/sketch -->
    <title>nav-close</title>
    <desc>Created with Sketch.</desc>
    <defs></defs>
    <g id="Page-1" stroke="none" stroke-width="1" fill="none" fill-rule="evenodd">
        <g id="nav-close" fill="#000000">
            <path d="M62.2331002,50 L89.7575758,22.4755245 C90.5858586,21.6472416 91,20.6278166 91,19.4172494 C91,18.2066822 90.5858586,17.1872572 89.7575758,16.3589744 L83.6410256,10.2424242 C82.8127428,9.41414141 81.7933178,9 80.5827506,9 C79.3721834,9 78.3527584,9.41414141 77.5244755,10.2424242 L50,37.7668998 L22.4755245,10.2424242 C21.6472416,9.41414141 20.6278166,9 19.4172494,9 C18.2066822,9 17.1872572,9.41414141 16.3589744,10.2424242 L10.2424242,16.3589744 C9.41414141,17.1872572 9,18.2066822 9,19.4172494 C9,20.6278166 9.41414141,21.6472416 10.2424242,22.4755245 L37.7668998,50 L10.2424242,77.5244755 C9.41414141,78.3527584 9,79.3721834 9,80.5827506 C9,81.7933178 9.41414141,82.8127428 10.2424242,83.6410256 L16.3589744,89.7575758 C17.1872572,90.5858586 18.2066822,91 19.4172494,91 C20.6278166,91 21.6472416,90.5858586 22.4755245,89.7575758 L50,62.2331002 L77.5244755,89.7575758 C78.3527584,90.5858586 79.3721834,91 80.5827506,91 C81.7933178,91 82.8127428,90.5858586 83.6410256,89.7575758 L89.7575758,83.6410256 C90.5858586,82.8127428 91,81.7933178 91,80.5827506 C91,79.3721834 90.5858586,78.3527584 89.7575758,77.5244755 L62.2331002,50 Z"></path>
        </g>
    </g>
</svg>