<?xml version="1.0" encoding="UTF-8"?>
<svg width="20px" height="20px" viewBox="0 0 20 20" version="1.1" xmlns="http://www.w3.org/2000/svg" xmlns:xlink="http://www.w3.org/1999/xlink">
    <!-- Generator: Sketch 41 (35326) - http://www.bohemiancoding.com/sketch -->
    <title>Group</title>
    <desc>Created with Sketch.</desc>
    <defs></defs>
    <g id="Page-1" stroke="none" stroke-width="1" fill="none" fill-rule="evenodd">
        <g id="1" transform="translate(-994.000000, -50.000000)" fill="#000000">
            <g id="Group" transform="translate(994.000000, 50.000000)">
                <path d="M21.8994949,8.89949494 L21.8994949,10.8994949 C21.8994949,11.1703283 21.8005366,11.4047033 21.6026199,11.6026199 C21.4047033,11.8005366 21.1703283,11.8994949 20.8994949,11.8994949 L-1.10050506,11.8994949 C-1.3713384,11.8994949 -1.6057134,11.8005366 -1.80363006,11.6026199 C-2.00154673,11.4047033 -2.10050506,11.1703283 -2.10050506,10.8994949 L-2.10050506,8.89949494 C-2.10050506,8.6286616 -2.00154673,8.3942866 -1.80363006,8.19636994 C-1.6057134,7.99845327 -1.3713384,7.89949494 -1.10050506,7.89949494 L20.8994949,7.89949494 C21.1703283,7.89949494 21.4047033,7.99845327 21.6026199,8.19636994 C21.8005366,8.3942866 21.8994949,8.6286616 21.8994949,8.89949494 L21.8994949,8.89949494 Z" id="middle" transform="translate(9.899495, 9.899495) rotate(-45.000000) translate(-9.899495, -9.899495) "></path>
                <path d="M21.8994949,8.89949494 L21.8994949,10.8994949 C21.8994949,11.1703283 21.8005366,11.4047033 21.6026199,11.6026199 C21.4047033,11.8005366 21.1703283,11.8994949 20.8994949,11.8994949 L-1.10050506,11.8994949 C-1.3713384,11.8994949 -1.6057134,11.8005366 -1.80363006,11.6026199 C-2.00154673,11.4047033 -2.10050506,11.1703283 -2.10050506,10.8994949 L-2.10050506,8.89949494 C-2.10050506,8.6286616 -2.00154673,8.3942866 -1.80363006,8.19636994 C-1.6057134,7.99845327 -1.3713384,7.89949494 -1.10050506,7.89949494 L20.8994949,7.89949494 C21.1703283,7.89949494 21.4047033,7.99845327 21.6026199,8.19636994 C21.8005366,8.3942866 21.8994949,8.6286616 21.8994949,8.89949494 L21.8994949,8.89949494 Z" id="top" transform="translate(9.899495, 9.899495) rotate(45.000000) translate(-9.899495, -9.899495) "></path>
            </g>
        </g>
    </g>
</svg>