<?xml version="1.0" encoding="UTF-8"?>
<svg width="100px" height="100px" viewBox="0 0 100 100" version="1.1" xmlns="http://www.w3.org/2000/svg" xmlns:xlink="http://www.w3.org/1999/xlink">
    <!-- Generator: Sketch 41 (35326) - http://www.bohemiancoding.com/sketch -->
    <title>nav</title>
    <desc>Created with Sketch.</desc>
    <defs></defs>
    <g id="Page-1" stroke="none" stroke-width="1" fill="none" fill-rule="evenodd">
        <g id="nav" fill="#000000">
            <path d="M100,79 L100,87 C100,88.0833333 99.5876736,89.0208333 98.7630208,89.8125 C97.9383681,90.6041667 96.9618056,91 95.8333333,91 L4.16666667,91 C3.03819444,91 2.06163194,90.6041667 1.23697917,89.8125 C0.412326389,89.0208333 0,88.0833333 0,87 L0,79 C0,77.9166667 0.412326389,76.9791667 1.23697917,76.1875 C2.06163194,75.3958333 3.03819444,75 4.16666667,75 L95.8333333,75 C96.9618056,75 97.9383681,75.3958333 98.7630208,76.1875 C99.5876736,76.9791667 100,77.9166667 100,79 L100,79 Z M100,46 L100,54 C100,55.0833333 99.5876736,56.0208333 98.7630208,56.8125 C97.9383681,57.6041667 96.9618056,58 95.8333333,58 L4.16666667,58 C3.03819444,58 2.06163194,57.6041667 1.23697917,56.8125 C0.412326389,56.0208333 0,55.0833333 0,54 L0,46 C0,44.9166667 0.412326389,43.9791667 1.23697917,43.1875 C2.06163194,42.3958333 3.03819444,42 4.16666667,42 L95.8333333,42 C96.9618056,42 97.9383681,42.3958333 98.7630208,43.1875 C99.5876736,43.9791667 100,44.9166667 100,46 L100,46 Z M100,13 L100,21 C100,22.0833333 99.5876736,23.0208333 98.7630208,23.8125 C97.9383681,24.6041667 96.9618056,25 95.8333333,25 L4.16666667,25 C3.03819444,25 2.06163194,24.6041667 1.23697917,23.8125 C0.412326389,23.0208333 0,22.0833333 0,21 L0,13 C0,11.9166667 0.412326389,10.9791667 1.23697917,10.1875 C2.06163194,9.39583333 3.03819444,9 4.16666667,9 L95.8333333,9 C96.9618056,9 97.9383681,9.39583333 98.7630208,10.1875 C99.5876736,10.9791667 100,11.9166667 100,13 L100,13 Z"></path>
        </g>
    </g>
</svg>