<?xml version="1.0" encoding="UTF-8"?>
<svg width="24px" height="20px" viewBox="0 0 24 20" version="1.1" xmlns="http://www.w3.org/2000/svg" xmlns:xlink="http://www.w3.org/1999/xlink">
    <!-- Generator: Sketch 41 (35326) - http://www.bohemiancoding.com/sketch -->
    <title>nav</title>
    
    <defs></defs>
    <g id="Page-1" stroke="none" stroke-width="1" fill="none" fill-rule="evenodd">
        <g id="1" transform="translate(-952.000000, -50.000000)" fill="#000000">
            <g id="hero">
                <g id="header" transform="translate(48.000000, 48.000000)">
                    <path d="M928,19 L928,21 C928,21.2708333 927.901042,21.5052083 927.703125,21.703125 C927.505208,21.9010417 927.270833,22 927,22 L905,22 C904.729167,22 904.494792,21.9010417 904.296875,21.703125 C904.098958,21.5052083 904,21.2708333 904,21 L904,19 C904,18.7291667 904.098958,18.4947917 904.296875,18.296875 C904.494792,18.0989583 904.729167,18 905,18 L927,18 C927.270833,18 927.505208,18.0989583 927.703125,18.296875 C927.901042,18.4947917 928,18.7291667 928,19 L928,19 Z M928,11 L928,13 C928,13.2708333 927.901042,13.5052083 927.703125,13.703125 C927.505208,13.9010417 927.270833,14 927,14 L905,14 C904.729167,14 904.494792,13.9010417 904.296875,13.703125 C904.098958,13.5052083 904,13.2708333 904,13 L904,11 C904,10.7291667 904.098958,10.4947917 904.296875,10.296875 C904.494792,10.0989583 904.729167,10 905,10 L927,10 C927.270833,10 927.505208,10.0989583 927.703125,10.296875 C927.901042,10.4947917 928,10.7291667 928,11 L928,11 Z M928,3 L928,5 C928,5.27083333 927.901042,5.50520833 927.703125,5.703125 C927.505208,5.90104167 927.270833,6 927,6 L905,6 C904.729167,6 904.494792,5.90104167 904.296875,5.703125 C904.098958,5.50520833 904,5.27083333 904,5 L904,3 C904,2.72916667 904.098958,2.49479167 904.296875,2.296875 C904.494792,2.09895833 904.729167,2 905,2 L927,2 C927.270833,2 927.505208,2.09895833 927.703125,2.296875 C927.901042,2.49479167 928,2.72916667 928,3 L928,3 Z" id="nav"></path>
                </g>
            </g>
        </g>
    </g>
</svg>