<svg xmlns="http://www.w3.org/2000/svg" display="none"><symbol id="logo" viewbox="0 0 454.8 65.41"><title>Land Ho</title><path d="M445.87 0a9 9 0 1 1-9.09 9 9 9 0 0 1 9.09-9zm-.07 1.81A7.12 7.12 0 0 0 438.74 9a7.05 7.05 0 1 0 14.1 0 7.13 7.13 0 0 0-7-7.23zm.34 2.85c1.65 0 3.14.68 3.14 2.41a2.13 2.13 0 0 1-1.39 2.07c.62.26 1.14.68 1.23 2a6.8 6.8 0 0 0 .26 2.09h-2.07a12.28 12.28 0 0 1-.28-2c-.06-.48-.18-1.25-1.53-1.25h-.84v3.3h-2.13V4.67zm-1.49 1.47v2.41h1c.44 0 1.47 0 1.47-1.31 0-1.08-.9-1.1-1.35-1.1zM367.47 33.39C367.47 12.77 383.31 0 400.68 0 420.1 0 434 15.16 434 32.7s-13.8 32.7-33.39 32.7c-19.84 0-33.13-15.76-33.13-31.94zm16.1-.77c0 9.62 6.56 18.65 17.38 18.65 11.41 0 16.95-10.39 16.95-18.48s-5.54-18.65-17.12-18.65c-11.16 0-17.2 9.54-17.2 18.4zM296.26 64.22v-63h16.1v23.65H333V1.19h16.1v63H333V39h-20.64v25.22zM204.29 1.19h20.87c7.07 0 19.67 0 27.85 11.75 4.34 6 5.79 12.69 5.79 19.59 0 17.2-8.52 31.68-32.45 31.68h-22.06zm16.1 48.89h6.9c12 0 15.42-8.35 15.42-17.29a22.21 22.21 0 0 0-3.07-11.67c-1.87-2.81-5.11-5.79-12.26-5.79h-7zM170.81 39.6l-.34-38.41h15.41v63h-14l-24.1-38 .34 38h-15.38v-63h13.88zM68.77 64.22H51.31l25-63h13.84l24.19 63H96.71l-3-9.11H71.67zm13.71-43.86l-6.81 22h13.88zM0 1.19h16.1v48.89h18.65v14.14H0z"/></symbol><symbol id="nav-close" viewbox="0 0 20 20"><title>Group</title><g fill-rule="evenodd"><path d="M17.678.707l1.414 1.414a.961.961 0 0 1 .287.707c0 .28-.096.516-.287.708L3.536 19.092a.961.961 0 0 1-.708.287.961.961 0 0 1-.707-.287L.707 17.678a.961.961 0 0 1-.287-.707c0-.28.096-.516.287-.708L16.263.707a.961.961 0 0 1 .708-.287c.28 0 .515.096.707.287z"/><path d="M19.092 17.678l-1.414 1.414a.961.961 0 0 1-.707.287.961.961 0 0 1-.708-.287L.707 3.536a.961.961 0 0 1-.287-.708c0-.28.096-.515.287-.707L2.121.707A.961.961 0 0 1 2.828.42c.28 0 .516.096.708.287l15.556 15.556a.961.961 0 0 1 .287.708c0 .28-.096.515-.287.707z"/></g></symbol><symbol id="nav" viewbox="0 0 24 20"><title>nav</title><path d="M24 17v2c0 .27-.099.505-.297.703A.961.961 0 0 1 23 20H1a.961.961 0 0 1-.703-.297A.961.961 0 0 1 0 19v-2c0-.27.099-.505.297-.703A.961.961 0 0 1 1 16h22c.27 0 .505.099.703.297A.961.961 0 0 1 24 17zm0-8v2c0 .27-.099.505-.297.703A.961.961 0 0 1 23 12H1a.961.961 0 0 1-.703-.297A.961.961 0 0 1 0 11V9c0-.27.099-.505.297-.703A.961.961 0 0 1 1 8h22c.27 0 .505.099.703.297A.961.961 0 0 1 24 9zm0-8v2c0 .27-.099.505-.297.703A.961.961 0 0 1 23 4H1a.961.961 0 0 1-.703-.297A.961.961 0 0 1 0 3V1C0 .73.099.495.297.297A.961.961 0 0 1 1 0h22c.27 0 .505.099.703.297A.961.961 0 0 1 24 1z" fill-rule="evenodd"/></symbol></svg>